<?xml version="1.0" standalone="no"?>
<!DOCTYPE svg PUBLIC "-//W3C//DTD SVG 20010904//EN"
 "http://www.w3.org/TR/2001/REC-SVG-20010904/DTD/svg10.dtd">
<svg version="1.0" xmlns="http://www.w3.org/2000/svg"
 width="512.000000pt" height="512.000000pt" viewBox="0 0 512.000000 512.000000"
 preserveAspectRatio="xMidYMid meet">
<style>
    g {
        fill: #000000;
    }
    @media (prefers-color-scheme: dark) {
        g {
        fill: #FFFFFF;
        }
    }
</style>
<g transform="translate(0.000000,512.000000) scale(0.100000,-0.100000)" stroke="none">
<path d="M1008 5104 c-87 -21 -156 -60 -224 -128 -117 -117 -144 -205 -144
-473 l0 -183 -102 0 c-182 0 -290 -40 -394 -144 -34 -34 -73 -85 -88 -114 -58
-115 -56 -30 -56 -1825 0 -1464 2 -1656 16 -1724 41 -199 166 -359 349 -448
144 -70 9 -66 2230 -63 l2000 3 82 28 c93 31 212 106 268 168 61 67 114 157
143 243 l27 81 3 2078 c3 2270 6 2141 -54 2259 -34 67 -135 168 -202 202 -116
59 -14 56 -1987 55 -1508 -1 -1820 -3 -1867 -15z m3718 -330 c15 -11 37 -33
48 -48 l21 -27 0 -2072 0 -2072 -22 -47 c-27 -60 -101 -134 -161 -161 l-47
-22 -2005 0 -2005 0 -47 22 c-60 27 -134 101 -161 161 l-22 47 0 1672 0 1672
21 27 c44 60 67 69 185 72 l109 4 2 -1629 3 -1630 27 -35 c73 -95 220 -81 268
25 19 41 20 91 20 1989 0 1354 3 1955 11 1975 14 37 47 73 84 89 25 11 346 13
1837 11 l1807 -2 27 -21z"/>
<path d="M1370 4458 c-33 -17 -51 -35 -67 -68 l-23 -44 0 -586 0 -586 23 -44
c16 -33 34 -51 67 -67 l44 -23 586 0 586 0 44 23 c33 16 51 34 68 67 l22 44 0
586 0 586 -22 44 c-17 33 -35 51 -68 68 l-44 22 -586 0 -586 0 -44 -22z m1030
-698 l0 -400 -400 0 -400 0 0 400 0 400 400 0 400 0 0 -400z"/>
<path d="M3084 4148 c-47 -22 -56 -86 -19 -123 l24 -25 666 0 c408 0 673 4
684 10 10 5 24 23 31 40 16 38 0 82 -36 99 -33 15 -1319 14 -1350 -1z"/>
<path d="M3084 3668 c-47 -22 -56 -86 -19 -123 l24 -25 666 0 c408 0 673 4
684 10 10 5 24 23 31 40 16 38 0 82 -36 99 -33 15 -1319 14 -1350 -1z"/>
<path d="M3084 3188 c-47 -22 -56 -86 -19 -123 l24 -25 666 0 c408 0 673 4
684 10 10 5 24 23 31 40 16 38 0 82 -36 99 -33 15 -1319 14 -1350 -1z"/>
<path d="M1323 2708 c-28 -13 -46 -58 -37 -92 15 -60 -94 -56 1592 -56 969 0
1550 4 1561 10 10 5 24 23 31 40 16 38 0 82 -36 99 -34 15 -3079 15 -3111 -1z"/>
<path d="M1323 2228 c-47 -23 -53 -103 -10 -133 32 -23 3102 -23 3134 0 44 31
37 111 -13 134 -34 15 -3079 15 -3111 -1z"/>
<path d="M1323 1748 c-47 -23 -53 -103 -10 -133 32 -22 1342 -22 1374 0 44 31
37 111 -13 134 -34 15 -1319 14 -1351 -1z"/>
<path d="M3083 1748 c-47 -23 -53 -103 -10 -133 32 -22 1342 -22 1374 0 44 31
37 111 -13 134 -34 15 -1319 14 -1351 -1z"/>
<path d="M1323 1268 c-47 -23 -53 -103 -10 -133 32 -22 1342 -22 1374 0 44 31
37 111 -13 134 -34 15 -1319 14 -1351 -1z"/>
<path d="M3083 1268 c-47 -23 -53 -103 -10 -133 32 -22 1342 -22 1374 0 44 31
37 111 -13 134 -34 15 -1319 14 -1351 -1z"/>
<path d="M1323 788 c-47 -23 -53 -103 -10 -133 32 -22 1342 -22 1374 0 44 31
37 111 -13 134 -34 15 -1319 14 -1351 -1z"/>
<path d="M3083 788 c-47 -23 -53 -103 -10 -133 32 -22 1342 -22 1374 0 44 31
37 111 -13 134 -34 15 -1319 14 -1351 -1z"/>
</g>
</svg>
